<svg width="31" height="31" viewBox="0 0 31 31" fill="none" xmlns="http://www.w3.org/2000/svg">
<path fill-rule="evenodd" clip-rule="evenodd" d="M17.0642 6.8182C18.7388 6.48894 20.2428 6.7278 21.5093 7.33909C21.5784 7.37242 21.6451 7.40603 21.7095 7.43977L22.9507 6.93748C24.229 6.42019 25.5799 7.50218 25.3552 8.86186C25.9639 9.53054 26.0605 10.6478 25.2379 11.3837L23.9649 12.5223C23.9805 13.9225 23.7885 15.1778 23.1989 16.5771C22.1477 19.0714 20.6404 20.9472 18.7963 22.252C17.4929 23.1743 16.0983 23.7599 14.6928 24.075C13.7843 24.2787 13.0137 24.3422 12.4466 24.3281C10.7157 24.3476 9.12124 23.9815 7.69868 23.3588C6.85227 22.9883 6.23046 22.6055 5.85678 22.3168C4.50586 21.2732 5.27496 19.1106 6.98146 19.1544C7.30906 19.1628 7.61591 19.158 7.90289 19.1413C7.3595 18.4971 7.07106 17.8492 6.95392 17.3161C6.91324 17.131 6.90309 16.9475 6.9197 16.7703C6.80693 16.6343 6.70181 16.4931 6.60438 16.3471C5.9139 15.3122 5.71017 14.2484 5.76736 13.34C5.77149 13.284 5.77303 13.263 5.77506 13.242C5.77628 13.2294 5.77768 13.2168 5.77991 13.1967L5.77991 13.1966C5.81096 12.9328 5.89573 12.6947 6.02019 12.4884C5.65454 11.3235 5.73754 10.1522 6.08203 9.04938C6.19407 8.69068 6.31203 8.41015 6.40776 8.22188C6.97811 7.10012 8.50537 6.91806 9.32343 7.87431C10.6115 9.37994 11.8837 10.2751 13.0971 10.7089C13.2476 10.7627 13.3923 10.808 13.5306 10.8454C13.9169 8.40741 15.5217 6.94925 17.0642 6.8182ZM15.2544 12.913C15.2544 12.913 12.061 13.6536 8.49761 9.48823C8.49761 9.48823 7.10926 12.2188 9.51596 13.8847C9.51596 13.8847 8.72956 14.0236 8.08094 13.5611C8.08094 13.5611 7.80316 15.9211 10.6726 16.8467H9.1454C9.1454 16.8467 9.56235 18.7442 12.2463 19.1606C12.2463 19.1606 11.1357 20.6414 7.52566 20.5489C7.52566 20.5489 9.56235 22.1223 12.6632 22.0759C12.6632 22.0759 18.4014 22.3537 21.1319 15.8744C21.8033 14.281 21.7336 12.7741 21.6872 12.0333L23.4459 10.4602L21.6872 10.7841C21.6872 10.7841 22.8906 9.9049 23.0297 9.07183L21.0858 9.85851C21.0858 9.85851 19.628 8.5396 17.1519 9.07183C17.1516 9.07183 14.8844 9.53462 15.2544 12.913Z" fill="#37474F"/>
<mask id="mask0_0_73" style="mask-type:luminance" maskUnits="userSpaceOnUse" x="5" y="6" width="21" height="19">
<path fill-rule="evenodd" clip-rule="evenodd" d="M17.0642 6.8182C18.7388 6.48894 20.2428 6.7278 21.5093 7.33909C21.5784 7.37242 21.6451 7.40603 21.7095 7.43977L22.9507 6.93748C24.229 6.42019 25.5799 7.50218 25.3552 8.86186C25.9639 9.53054 26.0605 10.6478 25.2379 11.3837L23.9649 12.5223C23.9805 13.9225 23.7885 15.1778 23.1989 16.5771C22.1477 19.0714 20.6404 20.9472 18.7963 22.252C17.4929 23.1743 16.0983 23.7599 14.6928 24.075C13.7843 24.2787 13.0137 24.3422 12.4466 24.3281C10.7157 24.3476 9.12124 23.9815 7.69868 23.3588C6.85227 22.9883 6.23046 22.6055 5.85678 22.3168C4.50586 21.2732 5.27496 19.1106 6.98146 19.1544C7.30906 19.1628 7.61591 19.158 7.90289 19.1413C7.3595 18.4971 7.07106 17.8492 6.95392 17.3161C6.91324 17.131 6.90309 16.9475 6.9197 16.7703C6.80693 16.6343 6.70181 16.4931 6.60438 16.3471C5.9139 15.3122 5.71017 14.2484 5.76736 13.34C5.77149 13.284 5.77303 13.263 5.77506 13.242C5.77628 13.2294 5.77768 13.2168 5.77991 13.1967L5.77991 13.1966C5.81096 12.9328 5.89573 12.6947 6.02019 12.4884C5.65454 11.3235 5.73754 10.1522 6.08203 9.04938C6.19407 8.69068 6.31203 8.41015 6.40776 8.22188C6.97811 7.10012 8.50537 6.91806 9.32343 7.87431C10.6115 9.37994 11.8837 10.2751 13.0971 10.7089C13.2476 10.7627 13.3923 10.808 13.5306 10.8454C13.9169 8.40741 15.5217 6.94925 17.0642 6.8182ZM15.2544 12.913C15.2544 12.913 12.061 13.6536 8.49761 9.48823C8.49761 9.48823 7.10926 12.2188 9.51596 13.8847C9.51596 13.8847 8.72956 14.0236 8.08094 13.5611C8.08094 13.5611 7.80316 15.9211 10.6726 16.8467H9.1454C9.1454 16.8467 9.56235 18.7442 12.2463 19.1606C12.2463 19.1606 11.1357 20.6414 7.52566 20.5489C7.52566 20.5489 9.56235 22.1223 12.6632 22.0759C12.6632 22.0759 18.4014 22.3537 21.1319 15.8744C21.8033 14.281 21.7336 12.7741 21.6872 12.0333L23.4459 10.4602L21.6872 10.7841C21.6872 10.7841 22.8906 9.9049 23.0297 9.07183L21.0858 9.85851C21.0858 9.85851 19.628 8.5396 17.1519 9.07183C17.1516 9.07183 14.8844 9.53462 15.2544 12.913Z" fill="white"/>
</mask>
<g mask="url(#mask0_0_73)">
</g>
</svg>
